<svg xmlns="http://www.w3.org/2000/svg" width="14" height="13" viewBox="0 0 14 13"><g><g><g><path fill="#ffca00" d="M11.102 3.66a.41.41 0 1 1 0-.82.41.41 0 0 1 0 .82zm-1.641 0a.41.41 0 1 1 0-.82.41.41 0 0 1 0 .82zm-1.64 0a.41.41 0 1 1 0-.82.41.41 0 0 1 0 .82zM11.1.38h-3.28A2.875 2.875 0 0 0 4.948 3.25 2.875 2.875 0 0 0 7.41 6.092v1.26a.41.41 0 0 0 .7.29l1.52-1.52h1.472C12.684 6.121 14 4.831 14 3.25 14 1.667 12.684.379 11.102.379z"/></g><g><path fill="#ffca00" d="M9.215 12.684c.678 0 1.23-.552 1.23-1.23V9.811a.41.41 0 0 0-.28-.388l-2.455-.82a.41.41 0 0 0-.358.047l-1.043.696C5.203 8.82 3.89 7.507 3.364 6.402l.696-1.044a.41.41 0 0 0 .048-.357l-.82-2.455a.41.41 0 0 0-.39-.28H1.23C.552 2.266 0 2.812 0 3.49c0 4.726 4.49 9.194 9.215 9.194z"/></g></g></g></svg>