<svg xmlns="http://www.w3.org/2000/svg" width="90" height="90" viewBox="0 0 90 90"><defs><mask id="i7erb" width="2" height="2" x="-1" y="-1"><path fill="#fff" d="M20 17h50v50H20z"/><path d="M20 42c0-13.807 11.193-25 25-25s25 11.193 25 25-11.193 25-25 25-25-11.193-25-25z"/></mask><filter id="i7era" width="120" height="123" x="-15" y="-18" filterUnits="userSpaceOnUse"><feOffset dy="3" in="SourceGraphic" result="FeOffset1511Out"/><feGaussianBlur in="FeOffset1511Out" result="FeGaussianBlur1512Out" stdDeviation="10 10"/></filter></defs><g><g><g filter="url(#i7era)"><path fill="none" d="M20 42c0-13.807 11.193-25 25-25s25 11.193 25 25-11.193 25-25 25-25-11.193-25-25z" mask="url(&quot;#i7erb&quot;)"/><path fill="#0064ff" fill-opacity=".35" d="M20 42c0-13.807 11.193-25 25-25s25 11.193 25 25-11.193 25-25 25-25-11.193-25-25z"/></g><path fill="#0064ff" d="M20 42c0-13.807 11.193-25 25-25s25 11.193 25 25-11.193 25-25 25-25-11.193-25-25z"/></g><g><g><g><path fill="#fff" d="M51.63 43.035c-.056.058-.27.306-.468.51-1.165 1.283-4.204 3.383-5.795 4.024-.242.103-.853.32-1.179.335-.313 0-.61-.072-.895-.218a1.874 1.874 0 0 1-.795-.904c-.1-.263-.256-1.05-.256-1.064-.156-.861-.242-2.26-.242-3.806 0-1.473.086-2.815.213-3.69.015-.013.17-.991.341-1.326a1.785 1.785 0 0 1 1.578-.992h.056c.426.015 1.321.395 1.321.409 1.505.642 4.474 2.639 5.668 3.966 0 0 .336.34.482.554.228.306.341.685.341 1.064 0 .423-.128.817-.37 1.138"/></g></g></g></g></svg>