<svg xmlns="http://www.w3.org/2000/svg" width="54" height="54" viewBox="0 0 54 54"><g><g><g><path fill="#ff005f" d="M25.845 22.34v1.058a2.674 2.674 0 0 0 .893 5.197.894.894 0 1 1-.893.893h-1.787a2.68 2.68 0 0 0 1.787 2.517v1.058h1.787v-1.058a2.674 2.674 0 0 0-.894-5.197.894.894 0 1 1 .894-.894h1.787a2.68 2.68 0 0 0-1.787-2.516V22.34z"/></g><g><path fill="#ff005f" d="M34.78 27.701a8.042 8.042 0 1 1-8.041-8.042A8.055 8.055 0 0 1 34.78 27.7zM21.378 14.297a4.476 4.476 0 0 1-4.379-3.574h4.379a4.476 4.476 0 0 1 4.379 3.574zm0-8.936a4.476 4.476 0 0 1-4.379-3.574h4.379a4.476 4.476 0 0 1 4.379 3.574zM32.1 1.787h4.379A4.476 4.476 0 0 1 32.1 5.361h-4.379A4.476 4.476 0 0 1 32.1 1.787zm0 8.936h4.379a4.476 4.476 0 0 1-4.379 3.574h-4.379a4.476 4.476 0 0 1 4.379-3.574zm0 5.361a6.262 6.262 0 0 0 6.255-6.255c0-.493-.4-.893-.893-.893H32.1c-1.683-.001-3.295.679-4.468 1.885V7.15H32.1A6.262 6.262 0 0 0 38.355.894c0-.494-.4-.894-.894-.894H32.1a6.243 6.243 0 0 0-5.362 3.047A6.243 6.243 0 0 0 21.377 0h-5.362c-.493 0-.893.4-.893.894a6.262 6.262 0 0 0 6.255 6.255h4.468v3.672a6.228 6.228 0 0 0-4.468-1.885h-5.362c-.493 0-.893.4-.893.893a6.262 6.262 0 0 0 6.255 6.255h4.468v1.832c-5.406.494-9.389 5.276-8.895 10.683.493 5.406 5.276 9.388 10.682 8.895 5.406-.494 9.389-5.276 8.895-10.683a9.83 9.83 0 0 0-8.895-8.895v-1.832z"/></g><g><path fill="#ff005f" d="M1.718 0h1.787v1.787H1.718z"/></g><g><path fill="#ff005f" d="M1.718 3.574h1.787v1.787H1.718z"/></g><g><path fill="#ff005f" d="M-.069 1.787h1.787v1.787H-.069z"/></g><g><path fill="#ff005f" d="M3.505 1.787h1.788v1.787H3.505z"/></g><g><path fill="#ff005f" d="M7.08 10.723h1.787v1.787H7.08z"/></g><g><path fill="#ff005f" d="M7.08 14.297h1.787v1.787H7.08z"/></g><g><path fill="#ff005f" d="M5.293 12.51H7.08v1.787H5.293z"/></g><g><path fill="#ff005f" d="M8.867 12.51h1.787v1.787H8.867z"/></g><g><path fill="#ff005f" d="M1.718 21.446h1.787v1.787H1.718z"/></g><g><path fill="#ff005f" d="M1.718 25.02h1.787v1.787H1.718z"/></g><g><path fill="#ff005f" d="M-.069 23.233h1.787v1.787H-.069z"/></g><g><path fill="#ff005f" d="M3.505 23.233h1.788v1.787H3.505z"/></g><g><path fill="#ff005f" d="M49.972 0h1.787v1.787h-1.787z"/></g><g><path fill="#ff005f" d="M49.972 3.574h1.787v1.787h-1.787z"/></g><g><path fill="#ff005f" d="M51.759 1.787h1.787v1.787h-1.787z"/></g><g><path fill="#ff005f" d="M48.184 1.787h1.788v1.787h-1.788z"/></g><g><path fill="#ff005f" d="M44.61 10.723h1.787v1.787H44.61z"/></g><g><path fill="#ff005f" d="M44.61 14.297h1.787v1.787H44.61z"/></g><g><path fill="#ff005f" d="M46.397 12.51h1.788v1.787h-1.788z"/></g><g><path fill="#ff005f" d="M42.823 12.51h1.787v1.787h-1.787z"/></g><g><path fill="#ff005f" d="M49.972 21.446h1.787v1.787h-1.787z"/></g><g><path fill="#ff005f" d="M49.972 25.02h1.787v1.787h-1.787z"/></g><g><path fill="#ff005f" d="M51.759 23.233h1.787v1.787h-1.787z"/></g><g><path fill="#ff005f" d="M48.184 23.233h1.788v1.787h-1.788z"/></g><g><path fill="#ff005f" d="M52.134 38.701a2.668 2.668 0 0 1-1.25 1.626L31.59 51.47c-.409.233-.87.356-1.34.358H19.196c-.249 0-.495-.036-.733-.107L7.08 48.477v-11.84h8.498a4.419 4.419 0 0 1 3.163 1.313l2.895 2.896c.17.164.398.257.635.259h10.723a2.642 2.642 0 0 1 1.876.768c.115.119.222.244.322.376.312.452.48.987.482 1.537a2.689 2.689 0 0 1-2.68 2.68H22.27v1.787h10.723a4.441 4.441 0 0 0 4.119-6.165l11.09-6.398a2.68 2.68 0 0 1 3.931 3.011zM5.293 51.828H1.718V33.956h3.575zm48.119-16.049a4.486 4.486 0 0 0-6.103-1.644l-11.188 6.46a4.476 4.476 0 0 0-3.127-1.277H22.637l-2.627-2.636a6.255 6.255 0 0 0-4.432-1.832H7.08v-1.787c0-.494-.4-.894-.894-.894H.825c-.494 0-.894.4-.894.894V52.72c0 .494.4.894.894.894h5.361c.494 0 .894-.4.894-.894v-2.386l10.892 3.11c.4.111.81.168 1.225.17H30.25c.785 0 1.555-.206 2.234-.599l19.293-11.134a4.468 4.468 0 0 0 1.635-6.103z"/></g></g></g></svg>