<svg xmlns="http://www.w3.org/2000/svg" viewBox="0 0 2976.5 299">
  
  <!-- <svg viewBox="0 0 512 512"> -->
  <g id="clock">
    <path d="M256 8C119 8 8 119 8 256s111 248 248 248 248-111 248-248S393 8 256 8zm57.1 350.1L224.9 294c-3.1-2.3-4.9-5.9-4.9-9.7V116c0-6.6 5.4-12 12-12h48c6.6 0 12 5.4 12 12v137.7l63.5 46.2c5.4 3.9 6.5 11.4 2.6 16.8l-28.2 38.8c-3.9 5.3-11.4 6.5-16.8 2.6z"></path>
  </g>

   <!-- <svg viewBox="0 0 512 512"> -->
  <g id="envelope">
  <path fill="currentColor" d="M502.3 190.8c3.9-3.1 9.7-.2 9.7 4.7V400c0 26.5-21.5 48-48 48H48c-26.5 0-48-21.5-48-48V195.6c0-5 5.7-7.8 9.7-4.7 22.4 17.4 52.1 39.5 154.1 113.6 21.1 15.4 56.7 47.8 92.2 47.6 35.7.3 72-32.8 92.3-47.6 102-74.1 131.6-96.3 154-113.7zM256 320c23.2.4 56.6-29.2 73.4-41.4 132.7-96.3 142.8-104.7 173.4-128.7 5.8-4.5 9.2-11.5 9.2-18.9v-19c0-26.5-21.5-48-48-48H48C21.5 64 0 85.5 0 112v19c0 7.4 3.4 14.3 9.2 18.9 30.6 23.9 40.7 32.4 173.4 128.7 16.8 12.2 50.2 41.8 73.4 41.4z"></path>
  </g>

  
  <!-- <svg viewBox="0 0 14 13"> -->
 	<g id="phone">
 		<g><g><g><path fill="#ffca00" d="M11.102 3.66a.41.41 0 1 1 0-.82.41.41 0 0 1 0 .82zm-1.641 0a.41.41 0 1 1 0-.82.41.41 0 0 1 0 .82zm-1.64 0a.41.41 0 1 1 0-.82.41.41 0 0 1 0 .82zM11.1.38h-3.28A2.875 2.875 0 0 0 4.948 3.25 2.875 2.875 0 0 0 7.41 6.092v1.26a.41.41 0 0 0 .7.29l1.52-1.52h1.472C12.684 6.121 14 4.831 14 3.25 14 1.667 12.684.379 11.102.379z"/></g><g><path fill="#ffca00" d="M9.215 12.684c.678 0 1.23-.552 1.23-1.23V9.811a.41.41 0 0 0-.28-.388l-2.455-.82a.41.41 0 0 0-.358.047l-1.043.696C5.203 8.82 3.89 7.507 3.364 6.402l.696-1.044a.41.41 0 0 0 .048-.357l-.82-2.455a.41.41 0 0 0-.39-.28H1.23C.552 2.266 0 2.812 0 3.49c0 4.726 4.49 9.194 9.215 9.194z"/></g></g></g>
 	</g>

	<!-- <svg viewBox="0 0 21 14"> -->
 	<g id="mexFlag">
 		<g><g><g><path fill="#fff" d="M8.177 6.16c.18 0 .327.146.327.327 0 .902.733 1.635 1.635 1.635s1.636-.733 1.636-1.635a.327.327 0 1 1 .654 0 2.292 2.292 0 0 1-2.29 2.29 2.292 2.292 0 0 1-2.29-2.29c0-.18.147-.327.328-.327zm1.962-.872a1.2 1.2 0 0 1 1.2 1.199 1.2 1.2 0 0 1-1.2 1.2 1.2 1.2 0 0 1-1.2-1.2 1.2 1.2 0 0 1 1.2-1.2zm2.944 7.795V.654H7.196v8.831c0 .18-.147.327-.327.327v.654c.18 0 .327.147.327.327v2.29z"/></g><g><path fill="#259245" d="M6.541 9.485V.655H.654v12.428h5.887v-2.29c0-.18.147-.327.327-.327v-.654a.327.327 0 0 1-.327-.327z"/></g><g><path fill="#ed1f34" d="M13.737 13.083V.654h5.887v12.429z"/></g><g><path d="M6.869 10.466a.327.327 0 0 0-.328.327v2.29H.654V.654h5.887v8.831a.327.327 0 1 0 .655 0V.655h5.887v12.428H7.196v-2.29a.327.327 0 0 0-.327-.327zm12.755 2.617h-5.887V.654h5.887zM19.951 0H.327A.327.327 0 0 0 0 .327V13.41c0 .18.146.327.327.327h19.624c.181 0 .327-.146.327-.327V.327A.327.327 0 0 0 19.951 0z"/></g><g><path fill="#134923" d="M10.14 8.776a2.292 2.292 0 0 0 2.289-2.29.327.327 0 1 0-.654 0c0 .903-.734 1.636-1.636 1.636a1.637 1.637 0 0 1-1.635-1.635.327.327 0 1 0-.654 0 2.292 2.292 0 0 0 2.29 2.29z"/></g><g><path fill="#f2a643" d="M10.14 7.686a1.2 1.2 0 0 0 1.198-1.2 1.2 1.2 0 0 0-1.199-1.198A1.2 1.2 0 0 0 8.94 6.487a1.2 1.2 0 0 0 1.2 1.2z"/></g></g></g>
  	</g>


    <!-- <svg viewBox="0 0 222 62"> -->
    <g id="cancun">
      <defs><linearGradient id="ch31a" x1="-2" x2="221.41" y1="51.38" y2="51.38" gradientUnits="userSpaceOnUse"><stop offset="0" stop-color="#ff005f"/><stop offset=".17" stop-color="#ff1544"/><stop offset=".37" stop-color="#fc6d00"/><stop offset=".57" stop-color="#8c6ced"/><stop offset=".79" stop-color="#154cff"/><stop offset="1" stop-color="#01a6ff"/></linearGradient></defs><g><g><g><g><path fill="#fff" d="M23.202 22.616c-2.153 0-4.102-.491-5.849-1.472a10.69 10.69 0 0 1-4.107-4.055c-.991-1.722-1.487-3.644-1.487-5.766 0-2.133.496-4.062 1.487-5.79a10.679 10.679 0 0 1 4.107-4.061C19.1.49 21.049 0 23.203 0c2.822 0 5.233.848 7.23 2.545 1.997 1.697 3.216 3.912 3.657 6.645h-6.007c-.37-1.11-.991-1.997-1.862-2.658-.871-.66-1.873-.99-3.004-.99-1.522 0-2.783.545-3.784 1.636-1.001 1.091-1.502 2.473-1.502 4.145 0 1.662.5 3.033 1.502 4.115 1 1.08 2.262 1.621 3.784 1.621 1.192 0 2.225-.357 3.101-1.073.876-.716 1.464-1.675 1.765-2.876h6.067c-.41 2.833-1.622 5.126-3.635 6.878-2.012 1.752-4.45 2.628-7.313 2.628z"/></g><g><path fill="#fff" d="M42.994 13.936l2.358-6.668 2.387 6.668zm13.906 8.14L48.265.54H42.47l-8.455 21.535h6.352l1.186-3.499h7.629l1.186 3.5z"/></g><g><path fill="#fff" d="M72.397.54h5.737v21.535h-4.896l-8.56-11.683v11.683h-5.736V.541h5.18l8.275 11.307z"/></g><g><path fill="#fff" d="M92.595 22.616c-2.153 0-4.103-.491-5.85-1.472a10.689 10.689 0 0 1-4.107-4.055c-.991-1.722-1.487-3.644-1.487-5.766 0-2.133.496-4.062 1.487-5.79a10.678 10.678 0 0 1 4.107-4.061C88.492.49 90.442 0 92.595 0c2.823 0 5.233.848 7.23 2.545 1.997 1.697 3.216 3.912 3.657 6.645h-6.007c-.37-1.11-.991-1.997-1.862-2.658-.871-.66-1.872-.99-3.004-.99-1.522 0-2.783.545-3.784 1.636-1.001 1.091-1.502 2.473-1.502 4.145 0 1.662.5 3.033 1.502 4.115 1 1.08 2.262 1.621 3.784 1.621 1.192 0 2.225-.357 3.102-1.073.876-.716 1.463-1.675 1.764-2.876h6.067c-.41 2.833-1.622 5.126-3.634 6.878-2.013 1.752-4.45 2.628-7.313 2.628z"/></g><g><path fill="#fff" d="M122.275 20.153c-1.757 1.642-4.012 2.463-6.765 2.463s-5.008-.821-6.765-2.463c-1.757-1.642-2.636-3.78-2.636-6.412V.54h6.067v13.095c0 1.05.308 1.892.924 2.522.615.63 1.419.946 2.41.946.99 0 1.794-.315 2.41-.946.616-.63.924-1.471.924-2.522V.54h6.066v13.2c0 2.633-.878 4.77-2.635 6.412z"/></g><g><path fill="#fff" d="M142.284.54h5.737v21.535h-4.895l-8.56-11.683v11.683h-5.737V.541h5.181l8.274 11.307z"/></g><g><path fill="#fff" d="M22.233 27.991v1.759h-4.537v13.162h-1.873V29.75h-4.536V27.99z"/></g><g><path fill="#fff" d="M30.254 29.77c.902 0 1.635.26 2.2.78.566.521.848 1.184.848 1.988 0 .812-.28 1.476-.842 1.993-.562.516-1.298.775-2.206.775H26.56V29.77zm5.233 13.142l-3.568-6.056c.999-.291 1.796-.82 2.393-1.587.596-.766.895-1.67.895-2.71 0-1.325-.46-2.417-1.38-3.278-.918-.86-2.079-1.29-3.48-1.29h-5.65v14.92h1.863v-5.836h3.402l3.424 5.837z"/></g><g><path fill="#fff" d="M46.464 37.626H40.69l2.86-7.055zm4.204 5.286l-6.275-14.92h-1.747l-6.097 14.92h1.987l1.456-3.569h7.17l1.477 3.569z"/></g><g><path fill="#fff" d="M63.111 27.991h1.832v14.92H63.37l-8.49-11.642v11.643H53.05v-14.92h1.685l8.376 11.507z"/></g><g><path fill="#fff" d="M73.422 43.1c-1.65 0-2.981-.435-3.99-1.302-1.01-.867-1.514-2.029-1.514-3.485h1.904c0 .909.333 1.628.999 2.159.666.53 1.526.796 2.58.796.957 0 1.755-.234 2.393-.702.638-.469.957-1.091.957-1.868 0-.188-.024-.366-.072-.536a2.785 2.785 0 0 0-.167-.448 1.193 1.193 0 0 0-.296-.369 8.403 8.403 0 0 0-.365-.302 2.131 2.131 0 0 0-.473-.255 94.518 94.518 0 0 0-.505-.208 5.303 5.303 0 0 0-.588-.182l-.593-.156a26.384 26.384 0 0 0-.645-.156c-1.269-.305-2.178-.586-2.726-.843-1.2-.575-1.89-1.439-2.07-2.59a4.517 4.517 0 0 1-.052-.698c0-1.283.457-2.296 1.373-3.038.916-.742 2.15-1.113 3.704-1.113 1.54 0 2.756.397 3.647 1.191s1.337 1.872 1.337 3.231h-1.852c0-.811-.296-1.453-.89-1.925-.593-.472-1.354-.707-2.283-.707-.923 0-1.68.206-2.274.619-.593.412-.89.966-.89 1.66 0 .228.037.438.11.629.073.19.16.357.265.5.104.141.257.277.458.405s.385.232.552.312c.166.08.396.165.691.255.295.09.54.16.734.208.194.049.464.115.811.198 1.27.312 2.178.596 2.726.853 1.235.569 1.963 1.425 2.185 2.57.056.277.084.569.084.874 0 .915-.234 1.711-.703 2.388a4.314 4.314 0 0 1-1.883 1.524c-.787.34-1.68.51-2.68.51z"/></g><g><path fill="#fff" d="M83.535 35.743v-5.941h3.381c.916 0 1.668.283 2.258.848.59.565.885 1.274.885 2.127 0 .854-.295 1.561-.885 2.123-.59.562-1.342.843-2.258.843zm-1.862-7.752v14.92h1.862v-5.358h3.486c1.415 0 2.594-.454 3.537-1.363.943-.908 1.415-2.046 1.415-3.413 0-1.366-.473-2.505-1.42-3.417-.947-.913-2.124-1.369-3.532-1.369z"/></g><g><path fill="#fff" d="M98.413 40.56a5.513 5.513 0 0 1-2.112-2.112c-.506-.895-.76-1.893-.76-2.997 0-1.102.254-2.101.76-2.996a5.52 5.52 0 0 1 2.112-2.112c.902-.514 1.908-.77 3.018-.77 1.116 0 2.126.255 3.028.765a5.469 5.469 0 0 1 2.112 2.112c.506.898.76 1.899.76 3.001 0 1.104-.254 2.104-.76 3.002a5.475 5.475 0 0 1-2.112 2.113c-.902.51-1.912.764-3.028.764-1.11 0-2.116-.256-3.018-.77zm9.828-1.17c.67-1.176 1.004-2.489 1.004-3.939 0-1.45-.335-2.762-1.004-3.938a7.217 7.217 0 0 0-2.794-2.767c-1.193-.67-2.532-1.005-4.016-1.005-1.485 0-2.822.335-4.011 1.005a7.225 7.225 0 0 0-2.789 2.767c-.67 1.176-1.004 2.489-1.004 3.938 0 1.45.335 2.763 1.004 3.939a7.223 7.223 0 0 0 2.789 2.768c1.19.669 2.526 1.003 4.01 1.003 1.485 0 2.824-.334 4.017-1.003a7.214 7.214 0 0 0 2.794-2.768z"/></g><g><path fill="#fff" d="M117.838 29.77c.902 0 1.636.26 2.201.78.565.521.848 1.184.848 1.988 0 .812-.28 1.476-.843 1.993-.562.516-1.297.775-2.206.775h-3.693V29.77zm5.234 13.142l-3.569-6.056c1-.291 1.797-.82 2.393-1.587.597-.766.895-1.67.895-2.71 0-1.325-.46-2.417-1.379-3.278-.919-.86-2.079-1.29-3.48-1.29h-5.65v14.92h1.863v-5.836h3.402l3.423 5.837z"/></g><g><path fill="#fff" d="M135.09 27.991v1.759h-4.537v13.162h-1.873V29.75h-4.537V27.99z"/></g><g><path fill="#fff" d="M144.411 37.626h-5.775l2.862-7.055zm4.204 5.286l-6.274-14.92h-1.748l-6.098 14.92h1.988l1.456-3.569h7.17l1.477 3.569z"/></g><g><path fill="#fff" d="M158.967 27.991v1.759h-4.537v13.162h-1.873V29.75h-4.536V27.99z"/></g><g><path fill="#fff" d="M161.433 42.912v-14.92h1.862v14.92z"/></g><g><path fill="#fff" d="M171.119 40.56a5.513 5.513 0 0 1-2.112-2.112c-.506-.895-.76-1.893-.76-2.997 0-1.102.254-2.101.76-2.996a5.52 5.52 0 0 1 2.112-2.112c.902-.514 1.907-.77 3.017-.77 1.117 0 2.126.255 3.028.765a5.467 5.467 0 0 1 2.112 2.112c.507.898.76 1.899.76 3.001 0 1.104-.253 2.104-.76 3.002a5.474 5.474 0 0 1-2.112 2.113c-.902.51-1.91.764-3.028.764-1.11 0-2.115-.256-3.017-.77zm9.827-1.17c.67-1.176 1.004-2.489 1.004-3.939 0-1.45-.334-2.762-1.004-3.938a7.219 7.219 0 0 0-2.793-2.767c-1.194-.67-2.533-1.005-4.017-1.005-1.484 0-2.82.335-4.01 1.005a7.225 7.225 0 0 0-2.79 2.767c-.669 1.176-1.003 2.489-1.003 3.938 0 1.45.334 2.763 1.004 3.939a7.222 7.222 0 0 0 2.788 2.768c1.19.669 2.527 1.003 4.011 1.003s2.823-.334 4.017-1.003a7.216 7.216 0 0 0 2.793-2.768z"/></g><g><path fill="#fff" d="M195.05 27.991h1.83v14.92h-1.57l-8.49-11.642v11.643h-1.832v-14.92h1.686l8.375 11.507z"/></g></g><g><g><g><path fill="url(#ch31a)" d="M221.412 51.383a1.797 1.797 0 0 0-1.834-1.796l-5.51.113-4.406-8.764h-2.765l2.11 8.869L-2 51.383l211.007 1.58-2.11 8.868h2.765l4.406-8.764 5.51.113a1.797 1.797 0 0 0 1.834-1.797z"/></g></g></g><g><g><g><g><path fill="#fff" d="M192.502 18.578a1.469 1.469 0 0 1-1.458 1.45c-.805 0-1.479-.678-1.468-1.477a1.465 1.465 0 0 1 1.461-1.443 1.46 1.46 0 0 1 1.465 1.47zm-21.331.005a1.48 1.48 0 0 1-1.465 1.448 1.481 1.481 0 0 1-1.461-1.452c-.01-.81.649-1.47 1.465-1.47a1.46 1.46 0 0 1 1.461 1.474zm-5.476-12.3h.77c.63 0 12.509-.008 13.138.006.108.003.26.066.314.151.584 1.87.788 2.884 1.391 4.973.01.015-8.87.039-8.862.082h-6.751zm17.425 0h.77c.63 0 1.26-.008 1.89.006.108.003.26.066.314.151 1.593 1.846 2.51 2.965 3.76 4.973.01.015.008.039.018.082h-6.752zM163.671 18.16c.073.203.126.416.223.606.462.911 1.227 1.313 2.231 1.285.227-.006.385.02.524.26.677 1.162 1.708 1.78 3.053 1.782 1.346.002 2.371-.621 3.055-1.78.114-.195.232-.263.455-.263 4.773.006 9.546.005 14.318-.002.222 0 .345.062.456.26 1.291 2.305 4.6 2.406 6.003.168.211-.337.415-.433.788-.433 1.254.002 2.22-.863 2.272-2.088.041-.964.044-1.94-.063-2.897-.284-2.544-2.554-4.769-5.081-5.05-.233-.025-.366-.122-.485-.314-1.274-1.852-2.014-2.709-3.255-4.458-.495-.8-1.362-1.202-2.305-1.202-6.588.003-13.176-.004-19.764.01-.4 0-.824.098-1.193.255-.713.306-1.05.937-1.232 1.662z"/></g></g></g></g></g></g>
    </g>


    <!-- <svg viewBox="0 0 102 15"> 102 15-->
    <g id="stars">
      <g><g><g><g><path fill="#ffb820" d="M16.35 5.694a.946.946 0 0 0-.899-.654h-4.576L9.461.688A.946.946 0 0 0 8.27.081l.293 7.452 4.453 7.477a.943.943 0 0 0 .704-1.217l-1.414-4.352 3.702-2.69a.946.946 0 0 0 .344-1.057z"/></g><g><path fill="#ffd06a" d="M15.451 5.986h-5.263L8.27.081a.946.946 0 0 0-.607.607L6.248 5.04H1.672a.946.946 0 0 0-.556 1.711l3.702 2.69-1.414 4.352a.946.946 0 0 0 1.456 1.058l3.702-2.69 3.702 2.69c.221.16.495.213.75.16l-1.82-5.931z"/></g></g><g><g><path fill="#ffb820" d="M37.57 5.694a.946.946 0 0 0-.9-.654h-4.576L30.68.688a.946.946 0 0 0-1.192-.607l.293 7.452 4.453 7.477a.943.943 0 0 0 .704-1.217l-1.414-4.352 3.702-2.69a.946.946 0 0 0 .344-1.057z"/></g><g><path fill="#ffd06a" d="M36.67 5.986h-5.263L29.488.081a.946.946 0 0 0-.607.607L27.467 5.04h-4.576a.946.946 0 0 0-.556 1.711l3.702 2.69-1.414 4.352a.946.946 0 0 0 1.456 1.058l3.702-2.69 3.702 2.69c.221.16.495.213.75.16l-1.82-5.931z"/></g></g><g><g><path fill="#ffb820" d="M58.789 5.694a.946.946 0 0 0-.9-.654h-4.575L51.899.688a.946.946 0 0 0-1.191-.607L51 7.533l4.453 7.477a.943.943 0 0 0 .704-1.217l-1.414-4.352 3.702-2.69a.946.946 0 0 0 .344-1.057z"/></g><g><path fill="#ffd06a" d="M57.89 5.986h-5.264L50.708.081a.946.946 0 0 0-.608.607L48.686 5.04H44.11a.946.946 0 0 0-.556 1.711l3.702 2.69-1.414 4.352a.946.946 0 0 0 1.456 1.058L51 12.16l3.702 2.69c.221.16.495.213.75.16l-1.82-5.931z"/></g></g><g><g><path fill="#ffb820" d="M80.008 5.694a.946.946 0 0 0-.9-.654h-4.575L73.118.688a.946.946 0 0 0-1.191-.607l.292 7.452 4.453 7.477a.943.943 0 0 0 .704-1.217l-1.413-4.352 3.701-2.69a.946.946 0 0 0 .344-1.057z"/></g><g><path fill="#ffd06a" d="M79.108 5.986h-5.263L71.927.081a.946.946 0 0 0-.608.607L69.905 5.04H65.33a.946.946 0 0 0-.556 1.711l3.702 2.69-1.414 4.352a.946.946 0 0 0 1.456 1.058l3.702-2.69 3.702 2.69c.221.16.495.213.751.16L74.851 9.08z"/></g></g><g><g><path fill="#ffb820" d="M101.227 5.694a.946.946 0 0 0-.9-.654h-4.575L94.338.688a.946.946 0 0 0-1.192-.607l.292 7.452 4.453 7.477a.943.943 0 0 0 .705-1.217l-1.414-4.352 3.701-2.69a.946.946 0 0 0 .344-1.057z"/></g><g><path fill="#ffd06a" d="M100.327 5.986h-5.263L93.146.081a.946.946 0 0 0-.608.607L91.124 5.04h-4.576a.946.946 0 0 0-.556 1.711l3.702 2.69-1.414 4.352a.946.946 0 0 0 1.456 1.058l3.702-2.69 3.702 2.69c.221.16.495.213.751.16L96.07 9.08z"/></g></g></g></g>
    </g>

    <!-- <svg viewBox="0 0 188 18"> -->
    <g id="arrow-plain">
      <defs><linearGradient id="450ra" x1="-3" x2="187.88" y1="9.08" y2="9.08" gradientUnits="userSpaceOnUse"><stop offset="0" stop-color="#ff005f"/><stop offset=".17" stop-color="#ff1544"/><stop offset=".37" stop-color="#fc6d00"/><stop offset=".57" stop-color="#8c6ced"/><stop offset=".79" stop-color="#154cff"/><stop offset="1" stop-color="#01a6ff"/></linearGradient></defs><g><g><g><g><path fill="url(#450ra)" d="M187.877 9.083c0-.86-.707-1.552-1.567-1.535l-4.708.097-3.764-7.488h-2.362l1.802 7.577L-3 9.083l180.278 1.349-1.802 7.577h2.362l3.764-7.488 4.708.097a1.535 1.535 0 0 0 1.567-1.535z"/></g></g></g></g>
    </g>

    <!-- <svg viewBox="0 0 90 90"> -->
    <g id="blue-play">
      <defs><mask id="i7erb" width="2" height="2" x="-1" y="-1"><path fill="#fff" d="M20 17h50v50H20z"/><path d="M20 42c0-13.807 11.193-25 25-25s25 11.193 25 25-11.193 25-25 25-25-11.193-25-25z"/></mask><filter id="i7era" width="120" height="123" x="-15" y="-18" filterUnits="userSpaceOnUse"><feOffset dy="3" in="SourceGraphic" result="FeOffset1511Out"/><feGaussianBlur in="FeOffset1511Out" result="FeGaussianBlur1512Out" stdDeviation="10 10"/></filter></defs><g><g><g filter="url(#i7era)"><path fill="none" d="M20 42c0-13.807 11.193-25 25-25s25 11.193 25 25-11.193 25-25 25-25-11.193-25-25z" mask="url(&quot;#i7erb&quot;)"/><path fill="#0064ff" fill-opacity=".35" d="M20 42c0-13.807 11.193-25 25-25s25 11.193 25 25-11.193 25-25 25-25-11.193-25-25z"/></g><path fill="#0064ff" d="M20 42c0-13.807 11.193-25 25-25s25 11.193 25 25-11.193 25-25 25-25-11.193-25-25z"/></g><g><g><g><path fill="#fff" d="M51.63 43.035c-.056.058-.27.306-.468.51-1.165 1.283-4.204 3.383-5.795 4.024-.242.103-.853.32-1.179.335-.313 0-.61-.072-.895-.218a1.874 1.874 0 0 1-.795-.904c-.1-.263-.256-1.05-.256-1.064-.156-.861-.242-2.26-.242-3.806 0-1.473.086-2.815.213-3.69.015-.013.17-.991.341-1.326a1.785 1.785 0 0 1 1.578-.992h.056c.426.015 1.321.395 1.321.409 1.505.642 4.474 2.639 5.668 3.966 0 0 .336.34.482.554.228.306.341.685.341 1.064 0 .423-.128.817-.37 1.138"/></g></g></g></g>
    </g>

    <!-- <svg viewBox="0 0 27 13"> -->
    <g id="white-arrow">
      <g><g><path fill="#fff" d="M26.212 5.689v-.001L20.798.302a1.036 1.036 0 0 0-1.461 1.468l3.633 3.616H1.036a1.036 1.036 0 1 0 0 2.072H22.97l-3.633 3.616a1.036 1.036 0 1 0 1.461 1.468l5.412-5.386h.001a1.037 1.037 0 0 0 0-1.467z"/></g></g>
    </g>

    <!-- <svg viewBox="0 0 51 51"> -->
    <g id="pulgar">
      <g><g><g><path fill="#ff005f" d="M9.018 44.236a1.796 1.796 0 1 1 3.592 0 1.796 1.796 0 0 1-3.592 0z"/></g><g><path fill="#ff005f" d="M16.922 32.702c-.263 0-.52.106-.706.291a1.008 1.008 0 0 0-.292.705 1 1 0 0 0 1.702.705c.186-.185.293-.442.293-.705 0-.261-.107-.518-.292-.705a1.004 1.004 0 0 0-.705-.291z"/></g><g><path fill="#ff005f" d="M46.76 36.136H36.5a.997.997 0 0 0 0 1.995h7.923a2.238 2.238 0 0 1 2.235 2.236 2.238 2.238 0 0 1-2.235 2.236H36.5a.997.997 0 0 0 0 1.994h5.408a2.238 2.238 0 0 1 2.236 2.236 2.238 2.238 0 0 1-2.236 2.236H24.482c-1.673 0-3.312-.31-4.87-.92l-1.693-.665V37.7a.997.997 0 0 0-1.995 0V47.82a1.25 1.25 0 0 1-1.248 1.248H1.92V25.197h12.756c.688 0 1.248.56 1.248 1.249v3.386a.997.997 0 0 0 1.995 0v-3.375l3.071-1.672a11.362 11.362 0 0 0 5.256-6.118l2.427-6.71.844.257a4.697 4.697 0 0 1 2.833 2.363 4.697 4.697 0 0 1 .277 3.679l-1.895 5.626a.998.998 0 0 0 .945 1.315h12.487a2.238 2.238 0 0 1 2.236 2.236 2.238 2.238 0 0 1-2.236 2.236H36.5a.997.997 0 0 0 0 1.995h10.258a2.238 2.238 0 0 1 2.236 2.236 2.238 2.238 0 0 1-2.236 2.236zm4.23-2.236a4.237 4.237 0 0 0-3.304-4.127c.447-.67.709-1.475.709-2.34a4.235 4.235 0 0 0-4.231-4.23H33.066l1.451-4.31a6.676 6.676 0 0 0-.394-5.229 6.676 6.676 0 0 0-4.026-3.358l-1.75-.532a.997.997 0 0 0-1.227.615l-2.75 7.599a9.37 9.37 0 0 1-4.334 5.045L17.29 24.53a3.24 3.24 0 0 0-2.614-1.326H.923a.997.997 0 0 0-.997.997v25.867c0 .55.446.997.997.997h13.753a3.244 3.244 0 0 0 2.8-1.61l1.408.552a15.272 15.272 0 0 0 5.598 1.058H41.91a4.235 4.235 0 0 0 4.23-4.23c0-.872-.264-1.683-.718-2.357a4.237 4.237 0 0 0 3.232-4.11c0-.889-.276-1.714-.746-2.396a4.237 4.237 0 0 0 3.083-4.07z"/></g><g><path fill="#ff005f" d="M10.814 45.035a.8.8 0 0 1 0-1.598.8.8 0 0 1 0 1.598zm0-3.592a2.797 2.797 0 0 0-2.794 2.793 2.797 2.797 0 0 0 2.794 2.794 2.797 2.797 0 0 0 2.794-2.794 2.797 2.797 0 0 0-2.794-2.793z"/></g><g><path fill="#ff005f" d="M29.728 1.995c.263 0 .52-.107.705-.293.186-.185.293-.442.293-.705 0-.262-.107-.52-.293-.705A1.005 1.005 0 0 0 29.728 0c-.262 0-.52.107-.705.292a1.005 1.005 0 0 0-.292.705c0 .263.107.52.292.705.186.186.443.293.705.293z"/></g><g><path fill="#ff005f" d="M29.728 3.723a.997.997 0 0 0-.997.998v2.427a.997.997 0 0 0 1.995 0V4.72a.997.997 0 0 0-.998-.998z"/></g><g><path fill="#ff005f" d="M35.67 14.09c0 .55.446.996.997.996h6.15a.997.997 0 0 0 0-1.994h-6.15a.997.997 0 0 0-.997.997z"/></g><g><path fill="#ff005f" d="M16.637 15.084h6.15a.997.997 0 0 0 0-1.995h-6.15a.997.997 0 0 0 0 1.995z"/></g><g><path fill="#ff005f" d="M23.384 9.153a.994.994 0 0 0 1.41 0 .997.997 0 0 0 0-1.41l-2.903-2.904a.998.998 0 0 0-1.41 1.41z"/></g><g><path fill="#ff005f" d="M35.367 9.447c.255 0 .51-.097.705-.292l2.904-2.904a.998.998 0 0 0-1.41-1.41L34.66 7.745a.997.997 0 0 0 .706 1.702z"/></g></g></g>
    </g>

    <!-- <svg viewBox="0 0 56 51"> -->
    <g id="warning">
      <g><g><g><g><g><path fill="#ff005f" d="M46.984 49.294H9.016c-4.073 0-7.386-3.313-7.386-7.386a7.38 7.38 0 0 1 .987-3.686L21.6 5.341A7.413 7.413 0 0 1 28 1.64a7.412 7.412 0 0 1 6.399 3.7l18.984 32.882a7.382 7.382 0 0 1 .987 3.685c0 4.073-3.313 7.386-7.386 7.386zm7.82-11.892L35.82 4.52A9.059 9.059 0 0 0 28 0a9.059 9.059 0 0 0-7.82 4.52L1.195 37.402A9.023 9.023 0 0 0-.01 41.908c0 4.978 4.05 9.027 9.027 9.027h37.968c4.978 0 9.027-4.05 9.027-9.027 0-1.58-.417-3.139-1.206-4.506z"/></g></g></g><g><g><g><path fill="#ff005f" d="M51.014 39.59L32.03 6.71A4.67 4.67 0 0 0 28 4.377a4.67 4.67 0 0 0-4.03 2.332l-8.672 15.02a.82.82 0 0 0 1.422.82l8.671-15.02A3.024 3.024 0 0 1 28 6.018c1.07 0 2.07.579 2.609 1.511l18.984 32.882c.266.46.4.964.4 1.497 0 1.66-1.35 3.01-3.009 3.01H9.016a3.012 3.012 0 0 1-3.01-3.01c0-.533.135-1.037.401-1.497l8.671-15.02a.82.82 0 0 0-1.42-.82L4.985 39.59a4.578 4.578 0 0 0-.62 2.317 4.655 4.655 0 0 0 4.65 4.65h37.968a4.655 4.655 0 0 0 4.65-4.65c0-.825-.208-1.605-.62-2.318z"/></g></g></g><g><g><g><path fill="#ff005f" d="M29.915 29.872A1.917 1.917 0 0 1 28 31.787a1.917 1.917 0 0 1-1.915-1.915V15.101c0-1.056.86-1.915 1.915-1.915 1.056 0 1.915.859 1.915 1.915zM28 11.545a3.56 3.56 0 0 0-3.556 3.556v14.771A3.56 3.56 0 0 0 28 33.428a3.56 3.56 0 0 0 3.556-3.556V15.101A3.56 3.56 0 0 0 28 11.545z"/></g></g></g><g><g><g><path fill="#ff005f" d="M28 40.54a1.917 1.917 0 0 1-1.915-1.914c0-1.056.86-1.915 1.915-1.915 1.056 0 1.915.859 1.915 1.915A1.917 1.917 0 0 1 28 40.54zm0-5.47a3.56 3.56 0 0 0-3.556 3.556A3.56 3.56 0 0 0 28 42.182a3.56 3.56 0 0 0 3.556-3.556A3.56 3.56 0 0 0 28 35.07z"/></g></g></g></g></g>
    </g>

    <!-- <svg viewBox="0 0 54 54"> -->
    <g id="hand">
      <g><g><g><path fill="#ff005f" d="M25.845 22.34v1.058a2.674 2.674 0 0 0 .893 5.197.894.894 0 1 1-.893.893h-1.787a2.68 2.68 0 0 0 1.787 2.517v1.058h1.787v-1.058a2.674 2.674 0 0 0-.894-5.197.894.894 0 1 1 .894-.894h1.787a2.68 2.68 0 0 0-1.787-2.516V22.34z"/></g><g><path fill="#ff005f" d="M34.78 27.701a8.042 8.042 0 1 1-8.041-8.042A8.055 8.055 0 0 1 34.78 27.7zM21.378 14.297a4.476 4.476 0 0 1-4.379-3.574h4.379a4.476 4.476 0 0 1 4.379 3.574zm0-8.936a4.476 4.476 0 0 1-4.379-3.574h4.379a4.476 4.476 0 0 1 4.379 3.574zM32.1 1.787h4.379A4.476 4.476 0 0 1 32.1 5.361h-4.379A4.476 4.476 0 0 1 32.1 1.787zm0 8.936h4.379a4.476 4.476 0 0 1-4.379 3.574h-4.379a4.476 4.476 0 0 1 4.379-3.574zm0 5.361a6.262 6.262 0 0 0 6.255-6.255c0-.493-.4-.893-.893-.893H32.1c-1.683-.001-3.295.679-4.468 1.885V7.15H32.1A6.262 6.262 0 0 0 38.355.894c0-.494-.4-.894-.894-.894H32.1a6.243 6.243 0 0 0-5.362 3.047A6.243 6.243 0 0 0 21.377 0h-5.362c-.493 0-.893.4-.893.894a6.262 6.262 0 0 0 6.255 6.255h4.468v3.672a6.228 6.228 0 0 0-4.468-1.885h-5.362c-.493 0-.893.4-.893.893a6.262 6.262 0 0 0 6.255 6.255h4.468v1.832c-5.406.494-9.389 5.276-8.895 10.683.493 5.406 5.276 9.388 10.682 8.895 5.406-.494 9.389-5.276 8.895-10.683a9.83 9.83 0 0 0-8.895-8.895v-1.832z"/></g><g><path fill="#ff005f" d="M1.718 0h1.787v1.787H1.718z"/></g><g><path fill="#ff005f" d="M1.718 3.574h1.787v1.787H1.718z"/></g><g><path fill="#ff005f" d="M-.069 1.787h1.787v1.787H-.069z"/></g><g><path fill="#ff005f" d="M3.505 1.787h1.788v1.787H3.505z"/></g><g><path fill="#ff005f" d="M7.08 10.723h1.787v1.787H7.08z"/></g><g><path fill="#ff005f" d="M7.08 14.297h1.787v1.787H7.08z"/></g><g><path fill="#ff005f" d="M5.293 12.51H7.08v1.787H5.293z"/></g><g><path fill="#ff005f" d="M8.867 12.51h1.787v1.787H8.867z"/></g><g><path fill="#ff005f" d="M1.718 21.446h1.787v1.787H1.718z"/></g><g><path fill="#ff005f" d="M1.718 25.02h1.787v1.787H1.718z"/></g><g><path fill="#ff005f" d="M-.069 23.233h1.787v1.787H-.069z"/></g><g><path fill="#ff005f" d="M3.505 23.233h1.788v1.787H3.505z"/></g><g><path fill="#ff005f" d="M49.972 0h1.787v1.787h-1.787z"/></g><g><path fill="#ff005f" d="M49.972 3.574h1.787v1.787h-1.787z"/></g><g><path fill="#ff005f" d="M51.759 1.787h1.787v1.787h-1.787z"/></g><g><path fill="#ff005f" d="M48.184 1.787h1.788v1.787h-1.788z"/></g><g><path fill="#ff005f" d="M44.61 10.723h1.787v1.787H44.61z"/></g><g><path fill="#ff005f" d="M44.61 14.297h1.787v1.787H44.61z"/></g><g><path fill="#ff005f" d="M46.397 12.51h1.788v1.787h-1.788z"/></g><g><path fill="#ff005f" d="M42.823 12.51h1.787v1.787h-1.787z"/></g><g><path fill="#ff005f" d="M49.972 21.446h1.787v1.787h-1.787z"/></g><g><path fill="#ff005f" d="M49.972 25.02h1.787v1.787h-1.787z"/></g><g><path fill="#ff005f" d="M51.759 23.233h1.787v1.787h-1.787z"/></g><g><path fill="#ff005f" d="M48.184 23.233h1.788v1.787h-1.788z"/></g><g><path fill="#ff005f" d="M52.134 38.701a2.668 2.668 0 0 1-1.25 1.626L31.59 51.47c-.409.233-.87.356-1.34.358H19.196c-.249 0-.495-.036-.733-.107L7.08 48.477v-11.84h8.498a4.419 4.419 0 0 1 3.163 1.313l2.895 2.896c.17.164.398.257.635.259h10.723a2.642 2.642 0 0 1 1.876.768c.115.119.222.244.322.376.312.452.48.987.482 1.537a2.689 2.689 0 0 1-2.68 2.68H22.27v1.787h10.723a4.441 4.441 0 0 0 4.119-6.165l11.09-6.398a2.68 2.68 0 0 1 3.931 3.011zM5.293 51.828H1.718V33.956h3.575zm48.119-16.049a4.486 4.486 0 0 0-6.103-1.644l-11.188 6.46a4.476 4.476 0 0 0-3.127-1.277H22.637l-2.627-2.636a6.255 6.255 0 0 0-4.432-1.832H7.08v-1.787c0-.494-.4-.894-.894-.894H.825c-.494 0-.894.4-.894.894V52.72c0 .494.4.894.894.894h5.361c.494 0 .894-.4.894-.894v-2.386l10.892 3.11c.4.111.81.168 1.225.17H30.25c.785 0 1.555-.206 2.234-.599l19.293-11.134a4.468 4.468 0 0 0 1.635-6.103z"/></g></g></g>
    </g>

    <!-- <svg viewBox="0 0 58 58"> -->
    <g id="plain">
      <g><g><g><g><g><path fill="#ff005f" d="M41.965 52.841l-.13.85-7.832-1.324 1.233-6.683 4.37 2.386a4.648 4.648 0 0 1 2.36 4.771zM21.301 33.284l-16.366 5.66c-.013.003-.026.008-.038.013l-1.868.646a.866.866 0 0 1-.795-.115.866.866 0 0 1-.367-.713v-3.521c0-.29.143-.56.382-.724l19.052-12.974zm-9.122 6.51a3.062 3.062 0 0 1-3.06 3.06h-.042a3.063 3.063 0 0 1-3.011-2.524l6.113-2.114zM6.018 24.372h6.16v1.363l-6.16 4.196zM40.41 46.596l-4.859-2.654a57.9 57.9 0 0 0 .274-1.699.84.84 0 1 0-1.663-.24 56.55 56.55 0 0 1-.354 2.156L32.2 52.876a3.41 3.41 0 0 1-2.5 2.687V44.312a.84.84 0 0 0-1.68 0v11.251a3.409 3.409 0 0 1-2.483-2.61v-.003l-.004-.015-.012-.06-1.607-8.716a56.52 56.52 0 0 1-.934-10.22V17.885a.84.84 0 0 0-1.68 0v1.638l-7.442 5.068v-1.06a.84.84 0 0 0-.84-.84H5.178a.84.84 0 0 0-.84.84v7.544l-3.034 2.066a2.554 2.554 0 0 0-1.118 2.113v3.52a2.56 2.56 0 0 0 2.558 2.556c.28 0 .562-.046.834-.14l.887-.306a4.746 4.746 0 0 0 4.612 3.65h.042a4.745 4.745 0 0 0 4.74-4.74v-2.159l7.453-2.577a58.23 58.23 0 0 0 .878 8.996l-4.655 2.542a6.337 6.337 0 0 0-3.215 6.5l.26 1.693a.84.84 0 0 0 .97.701l2.549-.43a.84.84 0 0 0-.28-1.657l-1.708.288-.13-.85a4.651 4.651 0 0 1 2.36-4.77l4.167-2.277 1.218 6.61-2.129.36a.84.84 0 0 0 .28 1.657l2.231-.377a5.08 5.08 0 0 0 4.754 3.306 5.079 5.079 0 0 0 4.765-3.342l8.77 1.482a.842.842 0 0 0 .97-.701l.26-1.693a6.333 6.333 0 0 0-3.217-6.5z"/></g></g></g><g><g><g><path fill="#ff005f" d="M55.856 38.775a.866.866 0 0 1-.367.713.865.865 0 0 1-.794.115l-1.868-.646-.039-.014-16.366-5.659V21.556L55.474 34.53c.24.163.382.434.382.724zm-7.21 4.079h-.042a3.062 3.062 0 0 1-3.06-3.06v-1.578l6.113 2.114a3.063 3.063 0 0 1-3.01 2.524zm-3.101-18.482h6.16v5.559l-6.16-4.196zm10.874 8.77l-3.034-2.067v-7.544a.84.84 0 0 0-.84-.84h-7.84a.84.84 0 0 0-.84.84v1.06l-7.443-5.068v-6.32c0-3.007-.686-5.964-1.986-8.55C32.885 1.566 31.01 0 28.862 0c-2.148 0-4.024 1.566-5.575 4.653-1.3 2.586-1.986 5.543-1.986 8.55v1.135a.84.84 0 0 0 1.68 0v-1.134c0-2.748.625-5.444 1.807-7.796.855-1.7 2.255-3.728 4.074-3.728 1.818 0 3.219 2.027 4.073 3.728 1.182 2.352 1.807 5.048 1.807 7.796v20.735c0 1.468-.058 2.955-.173 4.419a.84.84 0 1 0 1.675.132c.09-1.137.145-2.287.167-3.432l7.453 2.577v2.16a4.745 4.745 0 0 0 4.74 4.739h.042a4.747 4.747 0 0 0 4.612-3.65l.887.306a2.553 2.553 0 0 0 2.319-.333 2.56 2.56 0 0 0 1.073-2.082v-3.521c0-.847-.418-1.636-1.118-2.113z"/></g></g></g><g><g><g><path fill="#ff005f" d="M31.942 11.437a.18.18 0 0 1-.067.143.18.18 0 0 1-.153.04l-2.524-.462c-.223-.04-.45-.04-.673 0l-2.524.462a.18.18 0 0 1-.153-.04.18.18 0 0 1-.067-.143v-.69c0-.078.05-.149.124-.175L28.8 9.549a.187.187 0 0 1 .125 0l2.894 1.023a.186.186 0 0 1 .124.175zm.436-2.45l-2.895-1.022a1.873 1.873 0 0 0-1.243 0l-2.894 1.023a1.87 1.87 0 0 0-1.245 1.76v.69c0 .555.245 1.077.672 1.433a1.86 1.86 0 0 0 1.53.402l2.525-.462a.188.188 0 0 1 .067 0l2.525.462c.546.1 1.104-.046 1.53-.402.427-.356.672-.878.672-1.434v-.69c0-.789-.5-1.496-1.244-1.76z"/></g></g></g></g></g>
    </g>


    <!-- <svg viewBox="0 0 384 512"> -->
    <g id="map-marker-alt">
        <path fill="currentColor" d="M172.268 501.67C26.97 291.031 0 269.413 0 192 0 85.961 85.961 0 192 0s192 85.961 192 192c0 77.413-26.97 99.031-172.268 309.67-9.535 13.774-29.93 13.773-39.464 0zM192 272c44.183 0 80-35.817 80-80s-35.817-80-80-80-80 35.817-80 80 35.817 80 80 80z"></path>
    </g>

    

</svg>
