<svg xmlns="http://www.w3.org/2000/svg" viewBox="0 0 2976.5 299">
  
  <!-- <svg viewBox="0 0 512 512"> -->
  <g id="clock">
    <path d="M256 8C119 8 8 119 8 256s111 248 248 248 248-111 248-248S393 8 256 8zm57.1 350.1L224.9 294c-3.1-2.3-4.9-5.9-4.9-9.7V116c0-6.6 5.4-12 12-12h48c6.6 0 12 5.4 12 12v137.7l63.5 46.2c5.4 3.9 6.5 11.4 2.6 16.8l-28.2 38.8c-3.9 5.3-11.4 6.5-16.8 2.6z"></path>
  </g>

   <!-- <svg viewBox="0 0 512 512"> -->
  <g id="envelope">
  <path fill="currentColor" d="M502.3 190.8c3.9-3.1 9.7-.2 9.7 4.7V400c0 26.5-21.5 48-48 48H48c-26.5 0-48-21.5-48-48V195.6c0-5 5.7-7.8 9.7-4.7 22.4 17.4 52.1 39.5 154.1 113.6 21.1 15.4 56.7 47.8 92.2 47.6 35.7.3 72-32.8 92.3-47.6 102-74.1 131.6-96.3 154-113.7zM256 320c23.2.4 56.6-29.2 73.4-41.4 132.7-96.3 142.8-104.7 173.4-128.7 5.8-4.5 9.2-11.5 9.2-18.9v-19c0-26.5-21.5-48-48-48H48C21.5 64 0 85.5 0 112v19c0 7.4 3.4 14.3 9.2 18.9 30.6 23.9 40.7 32.4 173.4 128.7 16.8 12.2 50.2 41.8 73.4 41.4z"></path>
  </g>

  
  <!-- <svg viewBox="0 0 14 13"> -->
 	<g id="phone">
 		<g><g><g><path fill="#ffca00" d="M11.102 3.66a.41.41 0 1 1 0-.82.41.41 0 0 1 0 .82zm-1.641 0a.41.41 0 1 1 0-.82.41.41 0 0 1 0 .82zm-1.64 0a.41.41 0 1 1 0-.82.41.41 0 0 1 0 .82zM11.1.38h-3.28A2.875 2.875 0 0 0 4.948 3.25 2.875 2.875 0 0 0 7.41 6.092v1.26a.41.41 0 0 0 .7.29l1.52-1.52h1.472C12.684 6.121 14 4.831 14 3.25 14 1.667 12.684.379 11.102.379z"/></g><g><path fill="#ffca00" d="M9.215 12.684c.678 0 1.23-.552 1.23-1.23V9.811a.41.41 0 0 0-.28-.388l-2.455-.82a.41.41 0 0 0-.358.047l-1.043.696C5.203 8.82 3.89 7.507 3.364 6.402l.696-1.044a.41.41 0 0 0 .048-.357l-.82-2.455a.41.41 0 0 0-.39-.28H1.23C.552 2.266 0 2.812 0 3.49c0 4.726 4.49 9.194 9.215 9.194z"/></g></g></g>
 	</g>

	<!-- <svg viewBox="0 0 21 14"> -->
 	<g id="mexFlag">
 		<g><g><g><path fill="#fff" d="M8.177 6.16c.18 0 .327.146.327.327 0 .902.733 1.635 1.635 1.635s1.636-.733 1.636-1.635a.327.327 0 1 1 .654 0 2.292 2.292 0 0 1-2.29 2.29 2.292 2.292 0 0 1-2.29-2.29c0-.18.147-.327.328-.327zm1.962-.872a1.2 1.2 0 0 1 1.2 1.199 1.2 1.2 0 0 1-1.2 1.2 1.2 1.2 0 0 1-1.2-1.2 1.2 1.2 0 0 1 1.2-1.2zm2.944 7.795V.654H7.196v8.831c0 .18-.147.327-.327.327v.654c.18 0 .327.147.327.327v2.29z"/></g><g><path fill="#259245" d="M6.541 9.485V.655H.654v12.428h5.887v-2.29c0-.18.147-.327.327-.327v-.654a.327.327 0 0 1-.327-.327z"/></g><g><path fill="#ed1f34" d="M13.737 13.083V.654h5.887v12.429z"/></g><g><path d="M6.869 10.466a.327.327 0 0 0-.328.327v2.29H.654V.654h5.887v8.831a.327.327 0 1 0 .655 0V.655h5.887v12.428H7.196v-2.29a.327.327 0 0 0-.327-.327zm12.755 2.617h-5.887V.654h5.887zM19.951 0H.327A.327.327 0 0 0 0 .327V13.41c0 .18.146.327.327.327h19.624c.181 0 .327-.146.327-.327V.327A.327.327 0 0 0 19.951 0z"/></g><g><path fill="#134923" d="M10.14 8.776a2.292 2.292 0 0 0 2.289-2.29.327.327 0 1 0-.654 0c0 .903-.734 1.636-1.636 1.636a1.637 1.637 0 0 1-1.635-1.635.327.327 0 1 0-.654 0 2.292 2.292 0 0 0 2.29 2.29z"/></g><g><path fill="#f2a643" d="M10.14 7.686a1.2 1.2 0 0 0 1.198-1.2 1.2 1.2 0 0 0-1.199-1.198A1.2 1.2 0 0 0 8.94 6.487a1.2 1.2 0 0 0 1.2 1.2z"/></g></g></g>
  	</g>


    <!-- <svg viewBox="0 0 222 62"> -->
    <g id="cancun">
      <defs><linearGradient id="e7cza" x1="-2" x2="221.41" y1="51.38" y2="51.38" gradientUnits="userSpaceOnUse"><stop offset="0" stop-color="#ff005f"/><stop offset=".17" stop-color="#ff1544"/><stop offset=".37" stop-color="#fc6d00"/><stop offset=".57" stop-color="#8c6ced"/><stop offset=".79" stop-color="#154cff"/><stop offset="1" stop-color="#01a6ff"/></linearGradient></defs><g><g><g><g><path fill="#fff" d="M23.202 22.616c-2.153 0-4.102-.491-5.849-1.472a10.69 10.69 0 0 1-4.107-4.055c-.991-1.722-1.487-3.644-1.487-5.766 0-2.133.496-4.062 1.487-5.79a10.679 10.679 0 0 1 4.107-4.061C19.1.49 21.049 0 23.203 0c2.822 0 5.233.848 7.23 2.545 1.997 1.697 3.216 3.912 3.657 6.645h-6.007c-.37-1.11-.991-1.997-1.862-2.658-.871-.66-1.873-.99-3.004-.99-1.522 0-2.783.545-3.784 1.636-1.001 1.091-1.502 2.473-1.502 4.145 0 1.662.5 3.033 1.502 4.115 1 1.08 2.262 1.621 3.784 1.621 1.192 0 2.225-.357 3.101-1.073.876-.716 1.464-1.675 1.765-2.876h6.067c-.41 2.833-1.622 5.126-3.635 6.878-2.012 1.752-4.45 2.628-7.313 2.628z"/></g><g><path fill="#fff" d="M42.994 13.936l2.358-6.668 2.387 6.668zm13.906 8.14L48.265.54H42.47l-8.455 21.535h6.352l1.186-3.499h7.629l1.186 3.5z"/></g><g><path fill="#fff" d="M72.397.54h5.737v21.535h-4.896l-8.56-11.683v11.683h-5.736V.541h5.18l8.275 11.307z"/></g><g><path fill="#fff" d="M92.595 22.616c-2.153 0-4.103-.491-5.85-1.472a10.689 10.689 0 0 1-4.107-4.055c-.991-1.722-1.487-3.644-1.487-5.766 0-2.133.496-4.062 1.487-5.79a10.678 10.678 0 0 1 4.107-4.061C88.492.49 90.442 0 92.595 0c2.823 0 5.233.848 7.23 2.545 1.997 1.697 3.216 3.912 3.657 6.645h-6.007c-.37-1.11-.991-1.997-1.862-2.658-.871-.66-1.872-.99-3.004-.99-1.522 0-2.783.545-3.784 1.636-1.001 1.091-1.502 2.473-1.502 4.145 0 1.662.5 3.033 1.502 4.115 1 1.08 2.262 1.621 3.784 1.621 1.192 0 2.225-.357 3.102-1.073.876-.716 1.463-1.675 1.764-2.876h6.067c-.41 2.833-1.622 5.126-3.634 6.878-2.013 1.752-4.45 2.628-7.313 2.628z"/></g><g><path fill="#fff" d="M122.275 20.153c-1.757 1.642-4.012 2.463-6.765 2.463s-5.008-.821-6.765-2.463c-1.757-1.642-2.636-3.78-2.636-6.412V.54h6.067v13.095c0 1.05.308 1.892.924 2.522.615.63 1.419.946 2.41.946.99 0 1.794-.315 2.41-.946.616-.63.924-1.471.924-2.522V.54h6.066v13.2c0 2.633-.878 4.77-2.635 6.412z"/></g><g><path fill="#fff" d="M142.284.54h5.737v21.535h-4.895l-8.56-11.683v11.683h-5.737V.541h5.181l8.274 11.307z"/></g><g><path fill="#fff" d="M22.233 27.991v1.759h-4.537v13.162h-1.873V29.75h-4.536V27.99z"/></g><g><path fill="#fff" d="M30.254 29.77c.902 0 1.635.26 2.2.78.566.521.848 1.184.848 1.988 0 .812-.28 1.476-.842 1.993-.562.516-1.298.775-2.206.775H26.56V29.77zm5.233 13.142l-3.568-6.056c.999-.291 1.796-.82 2.393-1.587.596-.766.895-1.67.895-2.71 0-1.325-.46-2.417-1.38-3.278-.918-.86-2.079-1.29-3.48-1.29h-5.65v14.92h1.863v-5.836h3.402l3.424 5.837z"/></g><g><path fill="#fff" d="M46.464 37.626H40.69l2.86-7.055zm4.204 5.286l-6.275-14.92h-1.747l-6.097 14.92h1.987l1.456-3.569h7.17l1.477 3.569z"/></g><g><path fill="#fff" d="M63.111 27.991h1.832v14.92H63.37l-8.49-11.642v11.643H53.05v-14.92h1.685l8.376 11.507z"/></g><g><path fill="#fff" d="M73.422 43.1c-1.65 0-2.981-.435-3.99-1.302-1.01-.867-1.514-2.029-1.514-3.485h1.904c0 .909.333 1.628.999 2.159.666.53 1.526.796 2.58.796.957 0 1.755-.234 2.393-.702.638-.469.957-1.091.957-1.868 0-.188-.024-.366-.072-.536a2.785 2.785 0 0 0-.167-.448 1.193 1.193 0 0 0-.296-.369 8.403 8.403 0 0 0-.365-.302 2.131 2.131 0 0 0-.473-.255 94.518 94.518 0 0 0-.505-.208 5.303 5.303 0 0 0-.588-.182l-.593-.156a26.384 26.384 0 0 0-.645-.156c-1.269-.305-2.178-.586-2.726-.843-1.2-.575-1.89-1.439-2.07-2.59a4.517 4.517 0 0 1-.052-.698c0-1.283.457-2.296 1.373-3.038.916-.742 2.15-1.113 3.704-1.113 1.54 0 2.756.397 3.647 1.191s1.337 1.872 1.337 3.231h-1.852c0-.811-.296-1.453-.89-1.925-.593-.472-1.354-.707-2.283-.707-.923 0-1.68.206-2.274.619-.593.412-.89.966-.89 1.66 0 .228.037.438.11.629.073.19.16.357.265.5.104.141.257.277.458.405s.385.232.552.312c.166.08.396.165.691.255.295.09.54.16.734.208.194.049.464.115.811.198 1.27.312 2.178.596 2.726.853 1.235.569 1.963 1.425 2.185 2.57.056.277.084.569.084.874 0 .915-.234 1.711-.703 2.388a4.314 4.314 0 0 1-1.883 1.524c-.787.34-1.68.51-2.68.51z"/></g><g><path fill="#fff" d="M83.535 35.743v-5.941h3.381c.916 0 1.668.283 2.258.848.59.565.885 1.274.885 2.127 0 .854-.295 1.561-.885 2.123-.59.562-1.342.843-2.258.843zm-1.862-7.752v14.92h1.862v-5.358h3.486c1.415 0 2.594-.454 3.537-1.363.943-.908 1.415-2.046 1.415-3.413 0-1.366-.473-2.505-1.42-3.417-.947-.913-2.124-1.369-3.532-1.369z"/></g><g><path fill="#fff" d="M98.413 40.56a5.513 5.513 0 0 1-2.112-2.112c-.506-.895-.76-1.893-.76-2.997 0-1.102.254-2.101.76-2.996a5.52 5.52 0 0 1 2.112-2.112c.902-.514 1.908-.77 3.018-.77 1.116 0 2.126.255 3.028.765a5.469 5.469 0 0 1 2.112 2.112c.506.898.76 1.899.76 3.001 0 1.104-.254 2.104-.76 3.002a5.475 5.475 0 0 1-2.112 2.113c-.902.51-1.912.764-3.028.764-1.11 0-2.116-.256-3.018-.77zm9.828-1.17c.67-1.176 1.004-2.489 1.004-3.939 0-1.45-.335-2.762-1.004-3.938a7.217 7.217 0 0 0-2.794-2.767c-1.193-.67-2.532-1.005-4.016-1.005-1.485 0-2.822.335-4.011 1.005a7.225 7.225 0 0 0-2.789 2.767c-.67 1.176-1.004 2.489-1.004 3.938 0 1.45.335 2.763 1.004 3.939a7.223 7.223 0 0 0 2.789 2.768c1.19.669 2.526 1.003 4.01 1.003 1.485 0 2.824-.334 4.017-1.003a7.214 7.214 0 0 0 2.794-2.768z"/></g><g><path fill="#fff" d="M117.838 29.77c.902 0 1.636.26 2.201.78.565.521.848 1.184.848 1.988 0 .812-.28 1.476-.843 1.993-.562.516-1.297.775-2.206.775h-3.693V29.77zm5.234 13.142l-3.569-6.056c1-.291 1.797-.82 2.393-1.587.597-.766.895-1.67.895-2.71 0-1.325-.46-2.417-1.379-3.278-.919-.86-2.079-1.29-3.48-1.29h-5.65v14.92h1.863v-5.836h3.402l3.423 5.837z"/></g><g><path fill="#fff" d="M135.09 27.991v1.759h-4.537v13.162h-1.873V29.75h-4.537V27.99z"/></g><g><path fill="#fff" d="M144.411 37.626h-5.775l2.862-7.055zm4.204 5.286l-6.274-14.92h-1.748l-6.098 14.92h1.988l1.456-3.569h7.17l1.477 3.569z"/></g><g><path fill="#fff" d="M158.967 27.991v1.759h-4.537v13.162h-1.873V29.75h-4.536V27.99z"/></g><g><path fill="#fff" d="M161.433 42.912v-14.92h1.862v14.92z"/></g><g><path fill="#fff" d="M171.119 40.56a5.513 5.513 0 0 1-2.112-2.112c-.506-.895-.76-1.893-.76-2.997 0-1.102.254-2.101.76-2.996a5.52 5.52 0 0 1 2.112-2.112c.902-.514 1.907-.77 3.017-.77 1.117 0 2.126.255 3.028.765a5.467 5.467 0 0 1 2.112 2.112c.507.898.76 1.899.76 3.001 0 1.104-.253 2.104-.76 3.002a5.474 5.474 0 0 1-2.112 2.113c-.902.51-1.91.764-3.028.764-1.11 0-2.115-.256-3.017-.77zm9.827-1.17c.67-1.176 1.004-2.489 1.004-3.939 0-1.45-.334-2.762-1.004-3.938a7.219 7.219 0 0 0-2.793-2.767c-1.194-.67-2.533-1.005-4.017-1.005-1.484 0-2.82.335-4.01 1.005a7.225 7.225 0 0 0-2.79 2.767c-.669 1.176-1.003 2.489-1.003 3.938 0 1.45.334 2.763 1.004 3.939a7.222 7.222 0 0 0 2.788 2.768c1.19.669 2.527 1.003 4.011 1.003s2.823-.334 4.017-1.003a7.216 7.216 0 0 0 2.793-2.768z"/></g><g><path fill="#fff" d="M195.05 27.991h1.83v14.92h-1.57l-8.49-11.642v11.643h-1.832v-14.92h1.686l8.375 11.507z"/></g></g><g><g><g><path fill="url(#e7cza)" d="M221.412 51.383a1.797 1.797 0 0 0-1.834-1.796l-5.51.113-4.406-8.764h-2.765l2.11 8.869L-2 51.383l211.007 1.58-2.11 8.868h2.765l4.406-8.764 5.51.113a1.797 1.797 0 0 0 1.834-1.797z"/></g></g></g><g><g><g><g><path fill="#fff" d="M192.502 18.578a1.469 1.469 0 0 1-1.458 1.45c-.805 0-1.479-.678-1.468-1.477a1.465 1.465 0 0 1 1.461-1.443 1.46 1.46 0 0 1 1.465 1.47zm-21.331.005a1.48 1.48 0 0 1-1.465 1.448 1.481 1.481 0 0 1-1.461-1.452c-.01-.81.649-1.47 1.465-1.47a1.46 1.46 0 0 1 1.461 1.474zm-5.476-12.3h.77c.63 0 12.509-.008 13.138.006.108.003.26.066.314.151.584 1.87.788 2.884 1.391 4.973.01.015-8.87.039-8.862.082h-6.751zm17.425 0h.77c.63 0 1.26-.008 1.89.006.108.003.26.066.314.151 1.593 1.846 2.51 2.965 3.76 4.973.01.015.008.039.018.082h-6.752zM163.671 18.16c.073.203.126.416.223.606.462.911 1.227 1.313 2.231 1.285.227-.006.385.02.524.26.677 1.162 1.708 1.78 3.053 1.782 1.346.002 2.371-.621 3.055-1.78.114-.195.232-.263.455-.263 4.773.006 9.546.005 14.318-.002.222 0 .345.062.456.26 1.291 2.305 4.6 2.406 6.003.168.211-.337.415-.433.788-.433 1.254.002 2.22-.863 2.272-2.088.041-.964.044-1.94-.063-2.897-.284-2.544-2.554-4.769-5.081-5.05-.233-.025-.366-.122-.485-.314-1.274-1.852-2.014-2.709-3.255-4.458-.495-.8-1.362-1.202-2.305-1.202-6.588.003-13.176-.004-19.764.01-.4 0-.824.098-1.193.255-.713.306-1.05.937-1.232 1.662z"/></g></g></g></g></g></g>
    </g>

</svg>
