<svg xmlns="http://www.w3.org/2000/svg" viewBox="0 0 2976.5 299">
  
  <!-- <svg viewBox="0 0 512 512"> -->
  <g id="clock">
    <path d="M256 8C119 8 8 119 8 256s111 248 248 248 248-111 248-248S393 8 256 8zm57.1 350.1L224.9 294c-3.1-2.3-4.9-5.9-4.9-9.7V116c0-6.6 5.4-12 12-12h48c6.6 0 12 5.4 12 12v137.7l63.5 46.2c5.4 3.9 6.5 11.4 2.6 16.8l-28.2 38.8c-3.9 5.3-11.4 6.5-16.8 2.6z"></path>
  </g>

   <!-- <svg viewBox="0 0 512 512"> -->
  <g id="evnelope">
  <path fill="currentColor" d="M502.3 190.8c3.9-3.1 9.7-.2 9.7 4.7V400c0 26.5-21.5 48-48 48H48c-26.5 0-48-21.5-48-48V195.6c0-5 5.7-7.8 9.7-4.7 22.4 17.4 52.1 39.5 154.1 113.6 21.1 15.4 56.7 47.8 92.2 47.6 35.7.3 72-32.8 92.3-47.6 102-74.1 131.6-96.3 154-113.7zM256 320c23.2.4 56.6-29.2 73.4-41.4 132.7-96.3 142.8-104.7 173.4-128.7 5.8-4.5 9.2-11.5 9.2-18.9v-19c0-26.5-21.5-48-48-48H48C21.5 64 0 85.5 0 112v19c0 7.4 3.4 14.3 9.2 18.9 30.6 23.9 40.7 32.4 173.4 128.7 16.8 12.2 50.2 41.8 73.4 41.4z"></path>
  </g>

  
  <!-- <svg viewBox="0 0 14 13"> -->
 	<g id="phone">
 		<g><g><g><path fill="#ffca00" d="M11.102 3.66a.41.41 0 1 1 0-.82.41.41 0 0 1 0 .82zm-1.641 0a.41.41 0 1 1 0-.82.41.41 0 0 1 0 .82zm-1.64 0a.41.41 0 1 1 0-.82.41.41 0 0 1 0 .82zM11.1.38h-3.28A2.875 2.875 0 0 0 4.948 3.25 2.875 2.875 0 0 0 7.41 6.092v1.26a.41.41 0 0 0 .7.29l1.52-1.52h1.472C12.684 6.121 14 4.831 14 3.25 14 1.667 12.684.379 11.102.379z"/></g><g><path fill="#ffca00" d="M9.215 12.684c.678 0 1.23-.552 1.23-1.23V9.811a.41.41 0 0 0-.28-.388l-2.455-.82a.41.41 0 0 0-.358.047l-1.043.696C5.203 8.82 3.89 7.507 3.364 6.402l.696-1.044a.41.41 0 0 0 .048-.357l-.82-2.455a.41.41 0 0 0-.39-.28H1.23C.552 2.266 0 2.812 0 3.49c0 4.726 4.49 9.194 9.215 9.194z"/></g></g></g>
 	</g>
  
</svg>
