<svg xmlns="http://www.w3.org/2000/svg" width="21" height="14" viewBox="0 0 21 14"><g><g><g><path fill="#fff" d="M8.177 6.16c.18 0 .327.146.327.327 0 .902.733 1.635 1.635 1.635s1.636-.733 1.636-1.635a.327.327 0 1 1 .654 0 2.292 2.292 0 0 1-2.29 2.29 2.292 2.292 0 0 1-2.29-2.29c0-.18.147-.327.328-.327zm1.962-.872a1.2 1.2 0 0 1 1.2 1.199 1.2 1.2 0 0 1-1.2 1.2 1.2 1.2 0 0 1-1.2-1.2 1.2 1.2 0 0 1 1.2-1.2zm2.944 7.795V.654H7.196v8.831c0 .18-.147.327-.327.327v.654c.18 0 .327.147.327.327v2.29z"/></g><g><path fill="#259245" d="M6.541 9.485V.655H.654v12.428h5.887v-2.29c0-.18.147-.327.327-.327v-.654a.327.327 0 0 1-.327-.327z"/></g><g><path fill="#ed1f34" d="M13.737 13.083V.654h5.887v12.429z"/></g><g><path d="M6.869 10.466a.327.327 0 0 0-.328.327v2.29H.654V.654h5.887v8.831a.327.327 0 1 0 .655 0V.655h5.887v12.428H7.196v-2.29a.327.327 0 0 0-.327-.327zm12.755 2.617h-5.887V.654h5.887zM19.951 0H.327A.327.327 0 0 0 0 .327V13.41c0 .18.146.327.327.327h19.624c.181 0 .327-.146.327-.327V.327A.327.327 0 0 0 19.951 0z"/></g><g><path fill="#134923" d="M10.14 8.776a2.292 2.292 0 0 0 2.289-2.29.327.327 0 1 0-.654 0c0 .903-.734 1.636-1.636 1.636a1.637 1.637 0 0 1-1.635-1.635.327.327 0 1 0-.654 0 2.292 2.292 0 0 0 2.29 2.29z"/></g><g><path fill="#f2a643" d="M10.14 7.686a1.2 1.2 0 0 0 1.198-1.2 1.2 1.2 0 0 0-1.199-1.198A1.2 1.2 0 0 0 8.94 6.487a1.2 1.2 0 0 0 1.2 1.2z"/></g></g></g></svg>