<svg xmlns="http://www.w3.org/2000/svg" width="51" height="51" viewBox="0 0 51 51"><g><g><g><path fill="#ff005f" d="M9.018 44.236a1.796 1.796 0 1 1 3.592 0 1.796 1.796 0 0 1-3.592 0z"/></g><g><path fill="#ff005f" d="M16.922 32.702c-.263 0-.52.106-.706.291a1.008 1.008 0 0 0-.292.705 1 1 0 0 0 1.702.705c.186-.185.293-.442.293-.705 0-.261-.107-.518-.292-.705a1.004 1.004 0 0 0-.705-.291z"/></g><g><path fill="#ff005f" d="M46.76 36.136H36.5a.997.997 0 0 0 0 1.995h7.923a2.238 2.238 0 0 1 2.235 2.236 2.238 2.238 0 0 1-2.235 2.236H36.5a.997.997 0 0 0 0 1.994h5.408a2.238 2.238 0 0 1 2.236 2.236 2.238 2.238 0 0 1-2.236 2.236H24.482c-1.673 0-3.312-.31-4.87-.92l-1.693-.665V37.7a.997.997 0 0 0-1.995 0V47.82a1.25 1.25 0 0 1-1.248 1.248H1.92V25.197h12.756c.688 0 1.248.56 1.248 1.249v3.386a.997.997 0 0 0 1.995 0v-3.375l3.071-1.672a11.362 11.362 0 0 0 5.256-6.118l2.427-6.71.844.257a4.697 4.697 0 0 1 2.833 2.363 4.697 4.697 0 0 1 .277 3.679l-1.895 5.626a.998.998 0 0 0 .945 1.315h12.487a2.238 2.238 0 0 1 2.236 2.236 2.238 2.238 0 0 1-2.236 2.236H36.5a.997.997 0 0 0 0 1.995h10.258a2.238 2.238 0 0 1 2.236 2.236 2.238 2.238 0 0 1-2.236 2.236zm4.23-2.236a4.237 4.237 0 0 0-3.304-4.127c.447-.67.709-1.475.709-2.34a4.235 4.235 0 0 0-4.231-4.23H33.066l1.451-4.31a6.676 6.676 0 0 0-.394-5.229 6.676 6.676 0 0 0-4.026-3.358l-1.75-.532a.997.997 0 0 0-1.227.615l-2.75 7.599a9.37 9.37 0 0 1-4.334 5.045L17.29 24.53a3.24 3.24 0 0 0-2.614-1.326H.923a.997.997 0 0 0-.997.997v25.867c0 .55.446.997.997.997h13.753a3.244 3.244 0 0 0 2.8-1.61l1.408.552a15.272 15.272 0 0 0 5.598 1.058H41.91a4.235 4.235 0 0 0 4.23-4.23c0-.872-.264-1.683-.718-2.357a4.237 4.237 0 0 0 3.232-4.11c0-.889-.276-1.714-.746-2.396a4.237 4.237 0 0 0 3.083-4.07z"/></g><g><path fill="#ff005f" d="M10.814 45.035a.8.8 0 0 1 0-1.598.8.8 0 0 1 0 1.598zm0-3.592a2.797 2.797 0 0 0-2.794 2.793 2.797 2.797 0 0 0 2.794 2.794 2.797 2.797 0 0 0 2.794-2.794 2.797 2.797 0 0 0-2.794-2.793z"/></g><g><path fill="#ff005f" d="M29.728 1.995c.263 0 .52-.107.705-.293.186-.185.293-.442.293-.705 0-.262-.107-.52-.293-.705A1.005 1.005 0 0 0 29.728 0c-.262 0-.52.107-.705.292a1.005 1.005 0 0 0-.292.705c0 .263.107.52.292.705.186.186.443.293.705.293z"/></g><g><path fill="#ff005f" d="M29.728 3.723a.997.997 0 0 0-.997.998v2.427a.997.997 0 0 0 1.995 0V4.72a.997.997 0 0 0-.998-.998z"/></g><g><path fill="#ff005f" d="M35.67 14.09c0 .55.446.996.997.996h6.15a.997.997 0 0 0 0-1.994h-6.15a.997.997 0 0 0-.997.997z"/></g><g><path fill="#ff005f" d="M16.637 15.084h6.15a.997.997 0 0 0 0-1.995h-6.15a.997.997 0 0 0 0 1.995z"/></g><g><path fill="#ff005f" d="M23.384 9.153a.994.994 0 0 0 1.41 0 .997.997 0 0 0 0-1.41l-2.903-2.904a.998.998 0 0 0-1.41 1.41z"/></g><g><path fill="#ff005f" d="M35.367 9.447c.255 0 .51-.097.705-.292l2.904-2.904a.998.998 0 0 0-1.41-1.41L34.66 7.745a.997.997 0 0 0 .706 1.702z"/></g></g></g></svg>