<svg xmlns="http://www.w3.org/2000/svg" width="102" height="15" viewBox="0 0 102 15"><g><g><g><g><path fill="#ffb820" d="M16.35 5.694a.946.946 0 0 0-.899-.654h-4.576L9.461.688A.946.946 0 0 0 8.27.081l.293 7.452 4.453 7.477a.943.943 0 0 0 .704-1.217l-1.414-4.352 3.702-2.69a.946.946 0 0 0 .344-1.057z"/></g><g><path fill="#ffd06a" d="M15.451 5.986h-5.263L8.27.081a.946.946 0 0 0-.607.607L6.248 5.04H1.672a.946.946 0 0 0-.556 1.711l3.702 2.69-1.414 4.352a.946.946 0 0 0 1.456 1.058l3.702-2.69 3.702 2.69c.221.16.495.213.75.16l-1.82-5.931z"/></g></g><g><g><path fill="#ffb820" d="M37.57 5.694a.946.946 0 0 0-.9-.654h-4.576L30.68.688a.946.946 0 0 0-1.192-.607l.293 7.452 4.453 7.477a.943.943 0 0 0 .704-1.217l-1.414-4.352 3.702-2.69a.946.946 0 0 0 .344-1.057z"/></g><g><path fill="#ffd06a" d="M36.67 5.986h-5.263L29.488.081a.946.946 0 0 0-.607.607L27.467 5.04h-4.576a.946.946 0 0 0-.556 1.711l3.702 2.69-1.414 4.352a.946.946 0 0 0 1.456 1.058l3.702-2.69 3.702 2.69c.221.16.495.213.75.16l-1.82-5.931z"/></g></g><g><g><path fill="#ffb820" d="M58.789 5.694a.946.946 0 0 0-.9-.654h-4.575L51.899.688a.946.946 0 0 0-1.191-.607L51 7.533l4.453 7.477a.943.943 0 0 0 .704-1.217l-1.414-4.352 3.702-2.69a.946.946 0 0 0 .344-1.057z"/></g><g><path fill="#ffd06a" d="M57.89 5.986h-5.264L50.708.081a.946.946 0 0 0-.608.607L48.686 5.04H44.11a.946.946 0 0 0-.556 1.711l3.702 2.69-1.414 4.352a.946.946 0 0 0 1.456 1.058L51 12.16l3.702 2.69c.221.16.495.213.75.16l-1.82-5.931z"/></g></g><g><g><path fill="#ffb820" d="M80.008 5.694a.946.946 0 0 0-.9-.654h-4.575L73.118.688a.946.946 0 0 0-1.191-.607l.292 7.452 4.453 7.477a.943.943 0 0 0 .704-1.217l-1.413-4.352 3.701-2.69a.946.946 0 0 0 .344-1.057z"/></g><g><path fill="#ffd06a" d="M79.108 5.986h-5.263L71.927.081a.946.946 0 0 0-.608.607L69.905 5.04H65.33a.946.946 0 0 0-.556 1.711l3.702 2.69-1.414 4.352a.946.946 0 0 0 1.456 1.058l3.702-2.69 3.702 2.69c.221.16.495.213.751.16L74.851 9.08z"/></g></g><g><g><path fill="#ffb820" d="M101.227 5.694a.946.946 0 0 0-.9-.654h-4.575L94.338.688a.946.946 0 0 0-1.192-.607l.292 7.452 4.453 7.477a.943.943 0 0 0 .705-1.217l-1.414-4.352 3.701-2.69a.946.946 0 0 0 .344-1.057z"/></g><g><path fill="#ffd06a" d="M100.327 5.986h-5.263L93.146.081a.946.946 0 0 0-.608.607L91.124 5.04h-4.576a.946.946 0 0 0-.556 1.711l3.702 2.69-1.414 4.352a.946.946 0 0 0 1.456 1.058l3.702-2.69 3.702 2.69c.221.16.495.213.751.16L96.07 9.08z"/></g></g></g></g></svg>