<svg xmlns="http://www.w3.org/2000/svg" width="56" height="51" viewBox="0 0 56 51"><g><g><g><g><g><path fill="#ff005f" d="M46.984 49.294H9.016c-4.073 0-7.386-3.313-7.386-7.386a7.38 7.38 0 0 1 .987-3.686L21.6 5.341A7.413 7.413 0 0 1 28 1.64a7.412 7.412 0 0 1 6.399 3.7l18.984 32.882a7.382 7.382 0 0 1 .987 3.685c0 4.073-3.313 7.386-7.386 7.386zm7.82-11.892L35.82 4.52A9.059 9.059 0 0 0 28 0a9.059 9.059 0 0 0-7.82 4.52L1.195 37.402A9.023 9.023 0 0 0-.01 41.908c0 4.978 4.05 9.027 9.027 9.027h37.968c4.978 0 9.027-4.05 9.027-9.027 0-1.58-.417-3.139-1.206-4.506z"/></g></g></g><g><g><g><path fill="#ff005f" d="M51.014 39.59L32.03 6.71A4.67 4.67 0 0 0 28 4.377a4.67 4.67 0 0 0-4.03 2.332l-8.672 15.02a.82.82 0 0 0 1.422.82l8.671-15.02A3.024 3.024 0 0 1 28 6.018c1.07 0 2.07.579 2.609 1.511l18.984 32.882c.266.46.4.964.4 1.497 0 1.66-1.35 3.01-3.009 3.01H9.016a3.012 3.012 0 0 1-3.01-3.01c0-.533.135-1.037.401-1.497l8.671-15.02a.82.82 0 0 0-1.42-.82L4.985 39.59a4.578 4.578 0 0 0-.62 2.317 4.655 4.655 0 0 0 4.65 4.65h37.968a4.655 4.655 0 0 0 4.65-4.65c0-.825-.208-1.605-.62-2.318z"/></g></g></g><g><g><g><path fill="#ff005f" d="M29.915 29.872A1.917 1.917 0 0 1 28 31.787a1.917 1.917 0 0 1-1.915-1.915V15.101c0-1.056.86-1.915 1.915-1.915 1.056 0 1.915.859 1.915 1.915zM28 11.545a3.56 3.56 0 0 0-3.556 3.556v14.771A3.56 3.56 0 0 0 28 33.428a3.56 3.56 0 0 0 3.556-3.556V15.101A3.56 3.56 0 0 0 28 11.545z"/></g></g></g><g><g><g><path fill="#ff005f" d="M28 40.54a1.917 1.917 0 0 1-1.915-1.914c0-1.056.86-1.915 1.915-1.915 1.056 0 1.915.859 1.915 1.915A1.917 1.917 0 0 1 28 40.54zm0-5.47a3.56 3.56 0 0 0-3.556 3.556A3.56 3.56 0 0 0 28 42.182a3.56 3.56 0 0 0 3.556-3.556A3.56 3.56 0 0 0 28 35.07z"/></g></g></g></g></g></svg>