<svg xmlns="http://www.w3.org/2000/svg" width="58" height="58" viewBox="0 0 58 58"><g><g><g><g><g><path fill="#ff005f" d="M41.965 52.841l-.13.85-7.832-1.324 1.233-6.683 4.37 2.386a4.648 4.648 0 0 1 2.36 4.771zM21.301 33.284l-16.366 5.66c-.013.003-.026.008-.038.013l-1.868.646a.866.866 0 0 1-.795-.115.866.866 0 0 1-.367-.713v-3.521c0-.29.143-.56.382-.724l19.052-12.974zm-9.122 6.51a3.062 3.062 0 0 1-3.06 3.06h-.042a3.063 3.063 0 0 1-3.011-2.524l6.113-2.114zM6.018 24.372h6.16v1.363l-6.16 4.196zM40.41 46.596l-4.859-2.654a57.9 57.9 0 0 0 .274-1.699.84.84 0 1 0-1.663-.24 56.55 56.55 0 0 1-.354 2.156L32.2 52.876a3.41 3.41 0 0 1-2.5 2.687V44.312a.84.84 0 0 0-1.68 0v11.251a3.409 3.409 0 0 1-2.483-2.61v-.003l-.004-.015-.012-.06-1.607-8.716a56.52 56.52 0 0 1-.934-10.22V17.885a.84.84 0 0 0-1.68 0v1.638l-7.442 5.068v-1.06a.84.84 0 0 0-.84-.84H5.178a.84.84 0 0 0-.84.84v7.544l-3.034 2.066a2.554 2.554 0 0 0-1.118 2.113v3.52a2.56 2.56 0 0 0 2.558 2.556c.28 0 .562-.046.834-.14l.887-.306a4.746 4.746 0 0 0 4.612 3.65h.042a4.745 4.745 0 0 0 4.74-4.74v-2.159l7.453-2.577a58.23 58.23 0 0 0 .878 8.996l-4.655 2.542a6.337 6.337 0 0 0-3.215 6.5l.26 1.693a.84.84 0 0 0 .97.701l2.549-.43a.84.84 0 0 0-.28-1.657l-1.708.288-.13-.85a4.651 4.651 0 0 1 2.36-4.77l4.167-2.277 1.218 6.61-2.129.36a.84.84 0 0 0 .28 1.657l2.231-.377a5.08 5.08 0 0 0 4.754 3.306 5.079 5.079 0 0 0 4.765-3.342l8.77 1.482a.842.842 0 0 0 .97-.701l.26-1.693a6.333 6.333 0 0 0-3.217-6.5z"/></g></g></g><g><g><g><path fill="#ff005f" d="M55.856 38.775a.866.866 0 0 1-.367.713.865.865 0 0 1-.794.115l-1.868-.646-.039-.014-16.366-5.659V21.556L55.474 34.53c.24.163.382.434.382.724zm-7.21 4.079h-.042a3.062 3.062 0 0 1-3.06-3.06v-1.578l6.113 2.114a3.063 3.063 0 0 1-3.01 2.524zm-3.101-18.482h6.16v5.559l-6.16-4.196zm10.874 8.77l-3.034-2.067v-7.544a.84.84 0 0 0-.84-.84h-7.84a.84.84 0 0 0-.84.84v1.06l-7.443-5.068v-6.32c0-3.007-.686-5.964-1.986-8.55C32.885 1.566 31.01 0 28.862 0c-2.148 0-4.024 1.566-5.575 4.653-1.3 2.586-1.986 5.543-1.986 8.55v1.135a.84.84 0 0 0 1.68 0v-1.134c0-2.748.625-5.444 1.807-7.796.855-1.7 2.255-3.728 4.074-3.728 1.818 0 3.219 2.027 4.073 3.728 1.182 2.352 1.807 5.048 1.807 7.796v20.735c0 1.468-.058 2.955-.173 4.419a.84.84 0 1 0 1.675.132c.09-1.137.145-2.287.167-3.432l7.453 2.577v2.16a4.745 4.745 0 0 0 4.74 4.739h.042a4.747 4.747 0 0 0 4.612-3.65l.887.306a2.553 2.553 0 0 0 2.319-.333 2.56 2.56 0 0 0 1.073-2.082v-3.521c0-.847-.418-1.636-1.118-2.113z"/></g></g></g><g><g><g><path fill="#ff005f" d="M31.942 11.437a.18.18 0 0 1-.067.143.18.18 0 0 1-.153.04l-2.524-.462c-.223-.04-.45-.04-.673 0l-2.524.462a.18.18 0 0 1-.153-.04.18.18 0 0 1-.067-.143v-.69c0-.078.05-.149.124-.175L28.8 9.549a.187.187 0 0 1 .125 0l2.894 1.023a.186.186 0 0 1 .124.175zm.436-2.45l-2.895-1.022a1.873 1.873 0 0 0-1.243 0l-2.894 1.023a1.87 1.87 0 0 0-1.245 1.76v.69c0 .555.245 1.077.672 1.433a1.86 1.86 0 0 0 1.53.402l2.525-.462a.188.188 0 0 1 .067 0l2.525.462c.546.1 1.104-.046 1.53-.402.427-.356.672-.878.672-1.434v-.69c0-.789-.5-1.496-1.244-1.76z"/></g></g></g></g></g></svg>